<svg width="119" height="38" viewBox="0 0 119 38" fill="none" xmlns="http://www.w3.org/2000/svg">
<g filter="url(#filter0_d_0_233)">
<rect x="2" y="1" width="115" height="34" rx="6" fill="#5093E2"/>
<path d="M34.2143 11.3333H22.7827C22.2589 11.3333 21.8333 11.7649 21.8333 12.2947V23.7054C21.8333 24.2351 22.2589 24.6667 22.7827 24.6667H34.2143C34.7381 24.6667 35.1667 24.2351 35.1667 23.7054V12.2947C35.1667 11.7649 34.7381 11.3333 34.2143 11.3333ZM25.8631 22.7619H23.8869V16.3988H25.8661V22.7619H25.8631ZM24.875 15.5298C24.2411 15.5298 23.7292 15.0149 23.7292 14.3839C23.7292 13.753 24.2411 13.2381 24.875 13.2381C25.506 13.2381 26.0208 13.753 26.0208 14.3839C26.0208 15.0179 25.5089 15.5298 24.875 15.5298ZM33.2708 22.7619H31.2947V19.6667C31.2947 18.9286 31.2798 17.9792 30.2679 17.9792C29.2381 17.9792 29.0804 18.7827 29.0804 19.6131V22.7619H27.1042V16.3988H29V17.2679H29.0268C29.2917 16.7679 29.9375 16.2411 30.8988 16.2411C32.8988 16.2411 33.2708 17.5595 33.2708 19.2738V22.7619Z" fill="white"/>
<path d="M45.6186 23H51.7685V21.6776H47.1548V12.8182H45.6186V23ZM53.4016 23H54.8881V15.3636H53.4016V23ZM54.1523 14.1854C54.6644 14.1854 55.092 13.7876 55.092 13.3004C55.092 12.8132 54.6644 12.4105 54.1523 12.4105C53.6353 12.4105 53.2127 12.8132 53.2127 13.3004C53.2127 13.7876 53.6353 14.1854 54.1523 14.1854ZM58.3745 18.4659C58.3745 17.2479 59.1202 16.5518 60.1543 16.5518C61.1635 16.5518 61.775 17.2131 61.775 18.3217V23H63.2615V18.1428C63.2615 16.2536 62.2225 15.2642 60.6614 15.2642C59.513 15.2642 58.7623 15.7962 58.4093 16.6065H58.3148V15.3636H56.888V23H58.3745V18.4659ZM65.2551 23H66.7417V20.2905L67.4824 19.5497L70.0776 23H71.9022L68.601 18.6399L71.6934 15.3636H69.9135L66.8709 18.5952H66.7417V12.8182H65.2551V23ZM76.0249 23.1541C77.6903 23.1541 78.8686 22.3338 79.2067 21.0909L77.7997 20.8374C77.5312 21.5582 76.8849 21.9261 76.0398 21.9261C74.767 21.9261 73.9119 21.1009 73.8722 19.6293H79.3011V19.1023C79.3011 16.343 77.6506 15.2642 75.9205 15.2642C73.7926 15.2642 72.3906 16.8849 72.3906 19.2315C72.3906 21.603 73.7727 23.1541 76.0249 23.1541ZM73.8771 18.5156C73.9368 17.4318 74.7223 16.4922 75.9304 16.4922C77.0838 16.4922 77.8395 17.3473 77.8445 18.5156H73.8771ZM83.8091 23.1491C85.2012 23.1491 85.748 22.299 86.0165 21.8118H86.1408V23H87.5925V12.8182H86.106V16.6016H86.0165C85.748 16.1293 85.2409 15.2642 83.8191 15.2642C81.9746 15.2642 80.6174 16.7209 80.6174 19.1967C80.6174 21.6676 81.9547 23.1491 83.8091 23.1491ZM84.1373 21.8814C82.8098 21.8814 82.1188 20.7131 82.1188 19.1818C82.1188 17.6655 82.7949 16.527 84.1373 16.527C85.4348 16.527 86.1309 17.5859 86.1309 19.1818C86.1309 20.7876 85.4199 21.8814 84.1373 21.8814ZM91.3697 12.8182H89.8335V23H91.3697V12.8182ZM94.9741 18.4659C94.9741 17.2479 95.7198 16.5518 96.7539 16.5518C97.7631 16.5518 98.3746 17.2131 98.3746 18.3217V23H99.8612V18.1428C99.8612 16.2536 98.8221 15.2642 97.261 15.2642C96.1126 15.2642 95.3619 15.7962 95.0089 16.6065H94.9144V15.3636H93.4876V23H94.9741V18.4659Z" fill="white"/>
</g>
<defs>
<filter id="filter0_d_0_233" x="0" y="0" width="119" height="38" filterUnits="userSpaceOnUse" color-interpolation-filters="sRGB">
<feFlood flood-opacity="0" result="BackgroundImageFix"/>
<feColorMatrix in="SourceAlpha" type="matrix" values="0 0 0 0 0 0 0 0 0 0 0 0 0 0 0 0 0 0 127 0" result="hardAlpha"/>
<feOffset dy="1"/>
<feGaussianBlur stdDeviation="1"/>
<feColorMatrix type="matrix" values="0 0 0 0 0 0 0 0 0 0 0 0 0 0 0 0 0 0 0.05 0"/>
<feBlend mode="normal" in2="BackgroundImageFix" result="effect1_dropShadow_0_233"/>
<feBlend mode="normal" in="SourceGraphic" in2="effect1_dropShadow_0_233" result="shape"/>
</filter>
</defs>
</svg>
