<svg width="17" height="16" viewBox="0 0 17 16" fill="none" xmlns="http://www.w3.org/2000/svg">
<path d="M14.2143 1.33334H2.78275C2.25894 1.33334 1.83334 1.76489 1.83334 2.29465V13.7054C1.83334 14.2351 2.25894 14.6667 2.78275 14.6667H14.2143C14.7381 14.6667 15.1667 14.2351 15.1667 13.7054V2.29465C15.1667 1.76489 14.7381 1.33334 14.2143 1.33334ZM5.86311 12.7619H3.88691V6.39882H5.86608V12.7619H5.86311ZM4.87501 5.52977C4.24108 5.52977 3.72918 5.01489 3.72918 4.38394C3.72918 3.75299 4.24108 3.23811 4.87501 3.23811C5.50596 3.23811 6.02084 3.75299 6.02084 4.38394C6.02084 5.01787 5.50894 5.52977 4.87501 5.52977ZM13.2708 12.7619H11.2947V9.66668C11.2947 8.92858 11.2798 7.97918 10.2679 7.97918C9.23811 7.97918 9.08037 8.78275 9.08037 9.61311V12.7619H7.10418V6.39882H9.00001V7.26787H9.0268C9.29168 6.76787 9.93751 6.24108 10.8988 6.24108C12.8988 6.24108 13.2708 7.55953 13.2708 9.27382V12.7619Z" fill="white"/>
</svg>
